<!-- Generated by IcoMoon.io -->
<svg version="1.1" xmlns="http://www.w3.org/2000/svg" width="24" height="24" viewBox="0 0 24 24">
<title>lock</title>
<path d="M22.105 10h-0.711v-2.684c0-3.488-2.395-6.316-6.395-6.316s-6.395 2.828-6.395 6.316v2.684h-0.711c-1.046 0-1.895 0.966-1.895 2v10c0 1.034 0.848 2 1.895 2h14.211c1.046 0 1.895-0.966 1.895-2v-10c0-1.034-0.848-2-1.895-2zM15 19c-1.105 0-2-0.895-2-2s0.895-2 2-2c1.105 0 2 0.895 2 2s-0.895 2-2 2zM18.853 9.421c0 0.258-0.212 0.579-0.474 0.579h-6.755c-0.262 0-0.474-0.321-0.474-0.579v-2.105c0-2.196 1.35-3.916 3.85-3.916s3.853 1.72 3.853 3.916v2.105z"></path>
</svg>
